<svg id="wave" style="transform:rotate(180deg); transition: 0.3s" viewBox="0 0 1440 100" version="1.1" xmlns="http://www.w3.org/2000/svg"><defs><linearGradient id="sw-gradient-0" x1="0" x2="0" y1="1" y2="0"><stop stop-color="rgba(57, 189, 248, 1)" offset="0%"></stop><stop stop-color="rgba(57, 189, 248, 1)" offset="100%"></stop></linearGradient></defs><path style="transform:translate(0, 0px); opacity:1" fill="url(#sw-gradient-0)" d="M0,50L11.4,53.3C22.9,57,46,63,69,61.7C91.4,60,114,50,137,46.7C160,43,183,47,206,46.7C228.6,47,251,43,274,50C297.1,57,320,73,343,70C365.7,67,389,43,411,33.3C434.3,23,457,27,480,28.3C502.9,30,526,30,549,30C571.4,30,594,30,617,25C640,20,663,10,686,10C708.6,10,731,20,754,33.3C777.1,47,800,63,823,58.3C845.7,53,869,27,891,26.7C914.3,27,937,53,960,61.7C982.9,70,1006,60,1029,55C1051.4,50,1074,50,1097,48.3C1120,47,1143,43,1166,36.7C1188.6,30,1211,20,1234,20C1257.1,20,1280,30,1303,31.7C1325.7,33,1349,27,1371,30C1394.3,33,1417,47,1440,55C1462.9,63,1486,67,1509,60C1531.4,53,1554,37,1577,30C1600,23,1623,27,1634,28.3L1645.7,30L1645.7,100L1634.3,100C1622.9,100,1600,100,1577,100C1554.3,100,1531,100,1509,100C1485.7,100,1463,100,1440,100C1417.1,100,1394,100,1371,100C1348.6,100,1326,100,1303,100C1280,100,1257,100,1234,100C1211.4,100,1189,100,1166,100C1142.9,100,1120,100,1097,100C1074.3,100,1051,100,1029,100C1005.7,100,983,100,960,100C937.1,100,914,100,891,100C868.6,100,846,100,823,100C800,100,777,100,754,100C731.4,100,709,100,686,100C662.9,100,640,100,617,100C594.3,100,571,100,549,100C525.7,100,503,100,480,100C457.1,100,434,100,411,100C388.6,100,366,100,343,100C320,100,297,100,274,100C251.4,100,229,100,206,100C182.9,100,160,100,137,100C114.3,100,91,100,69,100C45.7,100,23,100,11,100L0,100Z"></path></svg>